#!OML:ASF C:\ViconDB\ViconDB\414\Spring2016\041811\Spring2016.ASF
:FULLY-SPECIFIED
:DEGREES
154
root 7.04138 17.0281 -5.56171 -163.238 -7.72756 180.328
lowerback 24.8087 1.45633 -2.06154
upperback 4.20528 0.556554 0.0353728
thorax -9.18444 -0.00821262 1.09934
lowerneck -16.8742 -2.19431 -9.27991
upperneck 9.07143 -2.82593 13.4058
head 5.84279 -0.781334 5.55986
rclavicle 1.44119e-014 -1.0138e-014
rhumerus -47.9292 -9.14548 -84.5315
rradius 53.6842
rwrist 16.3187
rhand -37.6774 -16.789
rfingers 7.12502
rthumb -10.7281 -46.4951
lclavicle 1.44119e-014 -1.0138e-014
lhumerus -39.0179 -2.41512 77.2926
lradius 35.3341
lwrist -14.2923
lhand -33.9354 15.2787
lfingers 7.12502
lthumb -7.1172 45.1391
rfemur -43.9356 -14.401 26.1756
rtibia 54.2834
rfoot -4.46004 -12.5998
rtoes -5.43394
lfemur -48.6624 6.01494 -16.1315
ltibia 56.377
lfoot -24.9947 -7.05168
ltoes -10.8982
155
root 7.04428 16.9685 -5.58573 -163.098 -7.73985 180.179
lowerback 25.3445 1.50866 -2.18692
upperback 4.26771 0.547352 0.0331308
thorax -9.39469 -0.0196072 1.17257
lowerneck -16.8877 -2.25522 -9.32992
upperneck 8.74877 -2.86042 13.3732
head 5.74874 -0.806178 5.54817
rclavicle 9.49197e-015 4.77083e-015
rhumerus -47.3838 -9.77827 -84.3422
rradius 53.2235
rwrist 16.5358
rhand -37.968 -16.4687
rfingers 7.12502
rthumb -11.0084 -46.16
lclavicle 9.49197e-015 4.77083e-015
lhumerus -38.5398 -2.53885 77.648
lradius 35.5854
lwrist -13.0698
lhand -34.4132 15.4276
lfingers 7.12502
lthumb -7.57837 45.2718
rfemur -44.5569 -14.4198 26.0602
rtibia 55.2751
rfoot -4.20416 -12.8248
rtoes -5.42259
lfemur -49.2471 6.02212 -16.2935
ltibia 57.2691
lfoot -25.3422 -7.05584
ltoes -10.9014
156
root 7.04143 16.9079 -5.61585 -162.935 -7.85542 180.346
lowerback 25.7315 1.4779 -1.95628
upperback 4.29655 0.550313 0.108434
thorax -9.56078 -0.0300814 1.12316
lowerneck -16.8415 -2.34725 -9.54682
upperneck 8.4232 -2.92915 13.509
head 5.65403 -0.844755 5.61737
rclavicle -2.57923e-014 8.64713e-015
rhumerus -46.8392 -10.537 -84.1426
rradius 52.8399
rwrist 16.8462
rhand -38.4797 -17.0122
rfingers 7.12502
rthumb -11.5019 -46.6767
lclavicle -2.57923e-014 8.64713e-015
lhumerus -38.0121 -2.24448 77.7873
lradius 35.9229
lwrist -12.5263
lhand -34.2832 15.4792
lfingers 7.12502
lthumb -7.45297 45.3279
rfemur -45.1677 -14.4001 26.2945
rtibia 56.2042
rfoot -3.84926 -13.0252
rtoes -5.41196
lfemur -49.936 6.17318 -16.1413
ltibia 58.2013
lfoot -25.6535 -7.21873
ltoes -10.9
157
root 7.03908 16.8469 -5.65173 -162.805 -7.92401 180.353
lowerback 26.0893 1.49945 -1.84563
upperback 4.32685 0.584668 0.125051
thorax -9.71159 -0.0233188 1.06698
lowerneck -16.7507 -2.48992 -9.75598
upperneck 8.13193 -3.08758 13.7205
head 5.57601 -0.923584 5.70187
rclavicle -4.01545e-014 2.88735e-014
rhumerus -46.3007 -11.0988 -84.0754
rradius 52.6215
rwrist 16.5684
rhand -38.6086 -17.0201
rfingers 7.12502
rthumb -11.6262 -46.6776
lclavicle -4.01545e-014 2.88735e-014
lhumerus -37.4573 -2.19254 77.9541
lradius 36.3041
lwrist -11.8936
lhand -34.0284 15.2506
lfingers 7.12502
lthumb -7.20703 45.1079
rfemur -45.6986 -14.3967 26.3229
rtibia 57.125
rfoot -3.60392 -13.2403
rtoes -5.41045
lfemur -50.5056 6.2128 -16.1483
ltibia 59.1065
lfoot -26.0378 -7.21774
ltoes -11.0918
158
root 7.03875 16.7851 -5.69374 -162.68 -7.99094 180.366
lowerback 26.417 1.48009 -1.80485
upperback 4.33087 0.553093 0.144044
thorax -9.875 -0.0428223 1.07572
lowerneck -16.9794 -2.47678 -9.64888
upperneck 8.06567 -3.0546 13.5935
head 5.58492 -0.906312 5.64468
rclavicle -5.46658e-015 7.00716e-015
rhumerus -45.7035 -11.3359 -84.0937
rradius 52.4291
rwrist 16.2126
rhand -38.7675 -16.9317
rfingers 7.12502
rthumb -11.7794 -46.5805
lclavicle -5.46658e-015 7.00716e-015
lhumerus -36.9586 -2.10773 78.0792
lradius 36.891
lwrist -11.2058
lhand -33.9812 15.314
lfingers 7.12502
lthumb -7.16142 45.1728
rfemur -46.171 -14.2793 26.3354
rtibia 58.0171
rfoot -3.22319 -13.3409
rtoes -5.39679
lfemur -51.0282 6.18664 -16.092
ltibia 60.0026
lfoot -26.4611 -7.217
ltoes -11.2991
159
root 7.03671 16.7255 -5.74438 -162.597 -7.9817 180.32
lowerback 26.64 1.54335 -1.78069
upperback 4.3762 0.620946 0.140964
thorax -9.94041 -0.01831 1.03568
lowerneck -17.0684 -2.57958 -9.66799
upperneck 7.84522 -3.15508 13.5399
head 5.54272 -0.959861 5.61667
rclavicle -2.10463e-014 1.69961e-014
rhumerus -45.0651 -11.7394 -84.0769
rradius 52.4519
rwrist 15.7412
rhand -38.9517 -16.9428
rfingers 7.12502
rthumb -11.9571 -46.5813
lclavicle -2.10463e-014 1.69961e-014
lhumerus -36.2968 -2.25367 78.2354
lradius 37.4462
lwrist -10.9443
lhand -33.8906 15.104
lfingers 7.12502
lthumb -7.07393 44.9658
rfemur -46.5157 -14.1788 26.2508
rtibia 58.8214
rfoot -2.92314 -13.435
rtoes -5.29892
lfemur -51.3897 6.21729 -16.1234
ltibia 60.7743
lfoot -26.8928 -7.1979
ltoes -11.5237
160
root 7.03532 16.6667 -5.79855 -162.524 -8.04788 180.309
lowerback 26.838 1.5622 -1.75922
upperback 4.38005 0.643118 0.170019
thorax -10.0387 -0.010424 1.04826
lowerneck -17.2311 -2.63574 -9.70827
upperneck 7.76326 -3.19916 13.5157
head 5.5496 -0.980209 5.61041
rclavicle -2.52457e-014 9.39258e-015
rhumerus -44.3166 -12.1716 -83.9929
rradius 52.2811
rwrist 15.8906
rhand -39.1776 -17.2416
rfingers 7.12502
rthumb -12.1749 -46.8673
lclavicle -2.52457e-014 9.39258e-015
lhumerus -35.7691 -2.18632 78.3541
lradius 38.193
lwrist -10.5368
lhand -33.8766 14.6925
lfingers 7.12502
lthumb -7.06042 44.5547
rfemur -46.823 -14.1596 26.2418
rtibia 59.5948
rfoot -2.5496 -13.5627
rtoes -5.06042
lfemur -51.7152 6.18144 -16.0801
ltibia 61.5117
lfoot -27.3232 -7.19595
ltoes -11.7395
161
root 7.03709 16.6446 -5.86405 -162.518 -8.04287 180.158
lowerback 27.0106 1.62486 -2.00413
upperback 4.4192 0.642087 0.214307
thorax -10.0874 -0.00736056 1.24004
lowerneck -17.5085 -2.64861 -9.60176
upperneck 7.73687 -3.17561 13.2357
head 5.57562 -0.973675 5.5026
rclavicle -1.54307e-014 9.24349e-015
rhumerus -43.5054 -12.2716 -83.9464
rradius 52.375
rwrist 15.9851
rhand -39.2334 -17.0133
rfingers 7.12502
rthumb -12.2287 -46.6358
lclavicle -1.54307e-014 9.24349e-015
lhumerus -35.2133 -2.21849 78.525
lradius 39.0406
lwrist -10.4977
lhand -34.0086 14.4635
lfingers 7.12502
lthumb -7.18786 44.3215
rfemur -46.8084 -14.1185 26.0395
rtibia 60.1593
rfoot -2.10568 -13.6841
rtoes -4.91382
lfemur -51.6825 6.21353 -16.247
ltibia 62.0339
lfoot -27.8505 -7.06232
ltoes -12.1644
